<svg xmlns="http://www.w3.org/2000/svg" viewBox="0 0 280 64" role="img" aria-label="ChatDuka">
  <rect width="64" height="64" rx="16" fill="#1E2A5A"/>
  <path d="M10 24 L32 10 L54 24 V28 H10 Z" fill="#E8A317"/>
  <path d="M14 24 L18 18 H22 L18 24 Z" fill="#C45C26"/>
  <path d="M26 24 L30 18 H34 L30 24 Z" fill="#C45C26"/>
  <path d="M38 24 L42 18 H46 L42 24 Z" fill="#C45C26"/>
  <rect x="10" y="28" width="44" height="4" fill="#C45C26"/>
  <path d="M16 36h32a6 6 0 0 1 6 6v10a6 6 0 0 1-6 6H30l-8 7v-7h-6a6 6 0 0 1-6-6V42a6 6 0 0 1 6-6z" fill="#FBF6EE"/>
  <circle cx="28" cy="48" r="2.4" fill="#1E2A5A"/>
  <circle cx="36" cy="48" r="2.4" fill="#1E2A5A"/>
  <circle cx="44" cy="48" r="2.4" fill="#E8A317"/>
  <text x="80" y="44" font-family="Georgia, 'Times New Roman', serif" font-size="32" font-weight="700" fill="#1A1410">Chat</text>
  <text x="154" y="44" font-family="Georgia, 'Times New Roman', serif" font-size="32" font-weight="700" fill="#E8A317">Duka</text>
</svg>
